<svg xmlns="http://www.w3.org/2000/svg" viewBox="0 0 70 70"><defs><style>.cls-1{fill:#353134;}.cls-2{fill:#842c2c;}.cls-3{fill:#c16049;}.cls-4{fill:#266bd1;}.cls-5{fill:#d3a966;}.cls-6{fill:#fff;}</style></defs><title>beer</title><g id="Layer_2" data-name="Layer 2"><g id="Snacks"><rect class="cls-1" width="70" height="70"/><g id="Beer"><path class="cls-2" d="M36.57,24.65a10.58,10.58,0,0,0-7.78-2.27,9.91,9.91,0,0,0-4.58,1.9L0,48.49V70H20.91L45.42,45.49a10.25,10.25,0,0,0,1.9-4.58,10.6,10.6,0,0,0-1.56-7.07Q41.16,29.25,36.57,24.65Z"/><path class="cls-2" d="M45.76,36.67a9.83,9.83,0,0,1-9.9-2.83C32.36,30,33.65,25,33.74,24.65L51.42,11.21,59.19,19Z"/><path class="cls-3" d="M38,36l3.54,2.12q8-10.39,16-20.78l-1.85-1.85Z"/><path class="cls-4" d="M60.47,22a1.13,1.13,0,0,0-.81-.8,1.14,1.14,0,0,0-1.22.52,2.44,2.44,0,0,0-1.18-1.32,2.53,2.53,0,0,0-2.24.11,2.4,2.4,0,0,0-3-2.11,3,3,0,0,0-.4-2,3.07,3.07,0,0,0-2-1.35,1.8,1.8,0,0,0,.36-1.85A1.92,1.92,0,0,0,48.68,12a1.18,1.18,0,0,0,.57-1.28,1.26,1.26,0,0,0-.8-.8l3.2-1.6,5.21,5.21,5.21,5.21Z"/><ellipse class="cls-4" cx="56.86" cy="13.55" rx="3.4" ry="7.37" transform="translate(7.07 44.17) rotate(-45)"/><ellipse class="cls-5" cx="57.07" cy="13.33" rx="2.5" ry="6.5" transform="translate(7.29 44.26) rotate(-45)"/><path class="cls-3" d="M41.52,38.08,38,36a4.8,4.8,0,0,1,0,1.42,5.68,5.68,0,0,1-2,3.45Q21.36,55.43,6.77,70h8.49Q28,57.22,40.81,44.45a5.79,5.79,0,0,0,1.41-4.24A5.25,5.25,0,0,0,41.52,38.08Z"/><path class="cls-4" d="M38,47.28a18.34,18.34,0,0,1-9.9-5.66,18.34,18.34,0,0,1-5.66-9.9,16.73,16.73,0,0,1,0-5.66L0,48.49V62.34a23.48,23.48,0,0,0,3.33,4A22.92,22.92,0,0,0,7.85,70H20.91L43.64,47.28A16.73,16.73,0,0,1,38,47.28Z"/><rect class="cls-5" x="6.06" y="37.64" width="20" height="32" rx="10" transform="translate(42.63 4.35) rotate(45)"/><path class="cls-6" d="M20.62,45.71l-.53.33-.47.31-.47.33c-.17.11-.34.24-.54.39a.54.54,0,0,1,.06.34.38.38,0,0,1-.15.25.44.44,0,0,1-.28.11.65.65,0,0,1-.36-.12l-.83.72-.8.75a.36.36,0,0,1-.3.13.34.34,0,0,1-.22-.15,1,1,0,0,1-.13-.35,1.65,1.65,0,0,1,0-.45,1.47,1.47,0,0,1,.11-.46.88.88,0,0,1,.26-.36c.31-.26.59-.52.86-.77q-.69-.52-1.47-1c-.52-.33-1-.62-1.5-.88-.26,0-.5.1-.74.16s-.45.15-.66.23a.55.55,0,0,1-.35,0,.29.29,0,0,1-.17-.17.58.58,0,0,1,0-.3A.85.85,0,0,1,12,44.4a1.11,1.11,0,0,1,.25-.33,1.07,1.07,0,0,1,.35-.25,7.9,7.9,0,0,1,1.13-.36,10.52,10.52,0,0,1,1.31-.22,12.66,12.66,0,0,1,1.39-.08,13,13,0,0,1,1.4,0,11.42,11.42,0,0,1,1.34.16,9.73,9.73,0,0,1,1.21.3.78.78,0,0,1,.44.36A1.48,1.48,0,0,1,21,45.25.81.81,0,0,1,20.62,45.71Zm-1.55-.84a8.69,8.69,0,0,0-1.38-.24,9.38,9.38,0,0,0-1.5,0q.38.32.72.66t.69.69l.7-.58A8,8,0,0,1,19.07,44.87Z"/><path class="cls-6" d="M25.55,51.07a.9.9,0,0,1-.58.47,2.81,2.81,0,0,1-.94.06,7,7,0,0,1-1.15-.24,10.38,10.38,0,0,1-1.22-.43,11.58,11.58,0,0,1-1.12-.53,8.94,8.94,0,0,1-.88-.52l-.84.4-.88.43c-.21.11-.37.11-.49,0a.61.61,0,0,1-.22-.44,1.28,1.28,0,0,1,.11-.59.84.84,0,0,1,.44-.47c.44-.23.85-.43,1.22-.61s.75-.34,1.11-.48.73-.26,1.11-.38.77-.21,1.2-.31a.83.83,0,0,1,.15-.35.86.86,0,0,1,.3-.27.85.85,0,0,1,.38-.09.74.74,0,0,1,.39.17l.4.37.35.34c.17.18.36.39.57.64a4.15,4.15,0,0,1,.52.83,3,3,0,0,1,.27,1A2,2,0,0,1,25.55,51.07Zm-.85-.91a1.88,1.88,0,0,0-.22-.37,4,4,0,0,0-.32-.4c-.12-.13-.23-.26-.35-.38l-.31-.32c-.4.07-.77.14-1.13.24s-.7.19-1,.3c.27.15.56.3.88.44a9.68,9.68,0,0,0,.92.36,6.55,6.55,0,0,0,.87.19A1.56,1.56,0,0,0,24.7,50.16Z"/><path class="cls-6" d="M27.93,53.26a2.94,2.94,0,0,0-.44.05l-.59.11-.66.14-.64.16-.55.16a2.69,2.69,0,0,0-.36.13l-.54.23a4.77,4.77,0,0,0-.52.22,4.2,4.2,0,0,0-.52.26c-.18.11-.36.22-.56.36a.44.44,0,0,1-.31.11.27.27,0,0,1-.19-.14.56.56,0,0,1-.08-.3,1.33,1.33,0,0,1,0-.39,1.27,1.27,0,0,1,.17-.4.84.84,0,0,1,.3-.32,8.22,8.22,0,0,1,1.25-.74c.44-.2.89-.39,1.35-.55s.92-.31,1.39-.44l1.41-.38a.72.72,0,0,1,.49,0,.39.39,0,0,1,.2.28,1.08,1.08,0,0,1,0,.44,2.36,2.36,0,0,1-.16.47,1.46,1.46,0,0,1-.23.37C28.08,53.21,28,53.26,27.93,53.26Z"/><path class="cls-6" d="M10.1,52.4l-.44,0-.59.11-.66.15c-.23,0-.44.1-.64.16L7.22,53l-.37.12a4.16,4.16,0,0,1-.54.23l-.51.22c-.18.08-.35.17-.53.27a6.39,6.39,0,0,0-.55.36.51.51,0,0,1-.31.11.32.32,0,0,1-.2-.14.82.82,0,0,1-.08-.3,1,1,0,0,1,0-.39,1.52,1.52,0,0,1,.16-.4,1,1,0,0,1,.3-.32A8,8,0,0,1,5.89,52a12.14,12.14,0,0,1,1.34-.55c.46-.17.93-.31,1.4-.44L10,50.67a.63.63,0,0,1,.48,0,.4.4,0,0,1,.21.28,1.1,1.1,0,0,1,0,.44,2,2,0,0,1-.15.47,1.81,1.81,0,0,1-.23.37C10.25,52.34,10.17,52.4,10.1,52.4Z"/><path class="cls-6" d="M14.33,56.81a.84.84,0,0,1-.58.47,2.56,2.56,0,0,1-.94.07,7,7,0,0,1-1.15-.24,12.58,12.58,0,0,1-1.22-.43c-.4-.17-.77-.34-1.12-.53a7.9,7.9,0,0,1-.88-.52L7.6,56l-.88.43a.43.43,0,0,1-.49,0A.61.61,0,0,1,6,56a1.2,1.2,0,0,1,.11-.6A.88.88,0,0,1,6.56,55l1.22-.6q.57-.27,1.11-.48c.36-.14.73-.27,1.1-.38s.78-.22,1.21-.31a.83.83,0,0,1,.15-.35.77.77,0,0,1,.3-.27.85.85,0,0,1,.38-.09.67.67,0,0,1,.39.17l.4.37.35.34c.17.17.36.39.57.64a4.15,4.15,0,0,1,.52.83,3.26,3.26,0,0,1,.27,1A2,2,0,0,1,14.33,56.81Zm-.85-.9a2.26,2.26,0,0,0-.22-.38l-.32-.4-.35-.37-.31-.32c-.4.06-.77.14-1.13.23l-1,.31c.27.15.56.3.87.44a7,7,0,0,0,.93.35,5.36,5.36,0,0,0,.87.2A1.56,1.56,0,0,0,13.48,55.91Z"/><path class="cls-6" d="M18.41,60.47l-.53.33-.47.31-.48.32-.53.4a.52.52,0,0,1,.05.34.41.41,0,0,1-.14.25.46.46,0,0,1-.29.1.6.6,0,0,1-.36-.11c-.28.23-.56.47-.83.72l-.79.75c-.12.1-.21.15-.3.13a.33.33,0,0,1-.22-.16,1,1,0,0,1-.14-.34,2.26,2.26,0,0,1,0-.45,1.2,1.2,0,0,1,.11-.46.8.8,0,0,1,.26-.36c.3-.26.59-.52.85-.77a16.41,16.41,0,0,0-1.46-1c-.53-.32-1-.62-1.5-.88a7.33,7.33,0,0,0-.74.17c-.23.07-.46.14-.67.22a.48.48,0,0,1-.34,0,.31.31,0,0,1-.17-.17.57.57,0,0,1,0-.3,1.27,1.27,0,0,1,.12-.36,2,2,0,0,1,.25-.34,1.26,1.26,0,0,1,.36-.24,7.51,7.51,0,0,1,1.13-.36,10.36,10.36,0,0,1,1.3-.22c.46,0,.92-.08,1.4-.09s.94,0,1.4,0,.91.09,1.34.17a10.21,10.21,0,0,1,1.21.29.88.88,0,0,1,.44.37A1.47,1.47,0,0,1,18.75,60,.85.85,0,0,1,18.41,60.47Zm-1.56-.85a9.46,9.46,0,0,0-1.38-.23,9.25,9.25,0,0,0-1.49,0c.25.21.49.43.72.65l.69.69.69-.57C16.32,60,16.58,59.8,16.85,59.62Z"/></g></g></g></svg>