<svg xmlns="http://www.w3.org/2000/svg" viewBox="0 0 70 70"><defs><style>.cls-1{fill:#353134;}.cls-2{fill:#fff;}</style></defs><title>blank_1</title><g id="Layer_2" data-name="Layer 2"><g id="Snacks"><rect class="cls-1" width="70" height="70"/><path class="cls-2" d="M10.92,27.19H9.13V13h1.79Z"/><path class="cls-2" d="M18.63,27.19V13H22a4.9,4.9,0,0,1,3.87,1.56,6.39,6.39,0,0,1,1.38,4.38v2.38a6.26,6.26,0,0,1-1.4,4.36,5.17,5.17,0,0,1-4.05,1.54Zm1.79-12.68V25.66h1.44a3.33,3.33,0,0,0,2.75-1.08,5.08,5.08,0,0,0,.89-3.2V18.86a5.19,5.19,0,0,0-.86-3.3A3.2,3.2,0,0,0,22,14.51Z"/><path class="cls-2" d="M39.3,21.33a7,7,0,0,1-1.24,4.48,4.23,4.23,0,0,1-3.53,1.58,4.28,4.28,0,0,1-3.47-1.53,6.74,6.74,0,0,1-1.32-4.32V18.86A7.11,7.11,0,0,1,31,14.39a4.21,4.21,0,0,1,3.51-1.61A4.22,4.22,0,0,1,38,14.33a6.93,6.93,0,0,1,1.29,4.41Zm-1.79-2.49a6,6,0,0,0-.74-3.35,2.83,2.83,0,0,0-4.49,0,5.89,5.89,0,0,0-.76,3.28v2.55a6.07,6.07,0,0,0,.75,3.32,2.54,2.54,0,0,0,2.26,1.14,2.51,2.51,0,0,0,2.23-1.05,5.93,5.93,0,0,0,.75-3.23Z"/><path class="cls-2" d="M51.35,27.19h-1.8l-5.69-11v11h-1.8V13h1.8l5.71,11V13h1.78Z"/><path class="cls-2" d="M62.47,14.51H58.73V27.19H57V14.51H53.21V13h9.26Z"/><path class="cls-2" d="M22.58,45h-9.3v9.32H24.12v2.84H10V30.89h14v2.83H13.28V42.2h9.3Z"/><path class="cls-2" d="M40.61,50.31H31.73l-2.05,6.88H26.29l8.47-26.3H37.6l8.49,26.3h-3.4Zm-8-2.84h7.17l-3.59-12Z"/><path class="cls-2" d="M62.71,33.72H55.79V57.19H52.48V33.72h-6.9V30.89H62.71Z"/></g></g></svg>