<svg xmlns="http://www.w3.org/2000/svg" viewBox="0 0 70 70"><defs><style>.cls-1{fill:#353134;}.cls-2{fill:#f993ef;}.cls-3{fill:#f4b8b0;}.cls-4{fill:#ffe0d7;}.cls-5{fill:#fff2eb;}.cls-6{fill:#e5152e;}.cls-7{fill:#820035;}</style></defs><title>milkshake</title><g id="Layer_2" data-name="Layer 2"><g id="Snacks"><rect class="cls-1" width="70" height="70"/><g id="Milkshake"><path class="cls-2" d="M0,54.89V70H29.94L51.11,54.42,21.87,25.18Z"/><ellipse class="cls-3" cx="36.64" cy="39.65" rx="7.27" ry="24.12" transform="translate(-17.31 37.52) rotate(-45)"/><path class="cls-4" d="M53,53.29c-4,0-11.53-4.77-18.37-11.6-8.89-8.89-13.19-17.88-11.1-20a2.2,2.2,0,0,1,1.6-.51c4,0,11.53,4.78,18.37,11.61,8.89,8.89,13.19,17.88,11.1,20A2.22,2.22,0,0,1,53,53.29Z"/><path class="cls-5" d="M25.1,22.21h0c3.15,0,10.23,3.89,17.66,11.32A54.21,54.21,0,0,1,52.38,46c2.1,4.06,1.77,5.78,1.48,6.06a1.4,1.4,0,0,1-.89.21c-3.15,0-10.23-3.88-17.66-11.31a54.24,54.24,0,0,1-9.62-12.5c-2.1-4.05-1.77-5.77-1.48-6.05a1.35,1.35,0,0,1,.89-.22m0-2a3.17,3.17,0,0,0-2.31.8C20,23.85,24.93,33.42,33.89,42.39c7.26,7.26,14.92,11.9,19.08,11.9a3.11,3.11,0,0,0,2.31-.8c2.84-2.83-2.14-12.41-11.1-21.38-7.26-7.26-14.92-11.9-19.08-11.9Z"/><ellipse class="cls-3" cx="38.65" cy="37.64" rx="2.07" ry="5.74" transform="translate(-15.3 38.35) rotate(-45)"/><ellipse class="cls-6" cx="38.81" cy="37.48" rx="1.15" ry="2.3" transform="translate(-15.14 38.42) rotate(-45)"/><ellipse class="cls-6" cx="47.74" cy="22.05" rx="25.23" ry="3.14" transform="translate(4.86 52.5) rotate(-60.17)"/><ellipse class="cls-7" cx="56.67" cy="6.62" rx="1.15" ry="2.3" transform="translate(20.58 50.81) rotate(-57.43)"/><path class="cls-4" d="M8,44,0,54.89v7.87A16,16,0,0,0,8.41,70H18a11.2,11.2,0,0,0,3.77-2.47c4.94-4.94,4.39-13.48-1.21-19.09A14.93,14.93,0,0,0,8,44Z"/><path class="cls-6" d="M11.21,55.91a5.66,5.66,0,0,0-.81.45c-.29.18-.57.36-.83.55s-.51.36-.73.53l-.5.39a5,5,0,0,0-.46.44l-.29.36a2.22,2.22,0,0,1-.23.22.27.27,0,0,1-.24,0,.51.51,0,0,1-.32-.26,1.23,1.23,0,0,1-.16-.5,1.71,1.71,0,0,1,.05-.59A1.23,1.23,0,0,1,7,57l.34-.32.57-.48c.22-.18.45-.35.71-.53a7.85,7.85,0,0,1,.75-.48,1.31,1.31,0,0,0-.55,0,8.15,8.15,0,0,0-.84.14c-.3.07-.63.15-1,.25s-.67.21-1,.32a7.83,7.83,0,0,0-.85.35,3.47,3.47,0,0,0-.57.31c-.23.16-.41.2-.55.13a.56.56,0,0,1-.28-.39,1.32,1.32,0,0,1,0-.65A1.53,1.53,0,0,1,4.13,55,12.09,12.09,0,0,1,5.56,53.7q.81-.62,1.71-1.2t1.8-1.08c.61-.34,1.18-.64,1.72-.91a1.07,1.07,0,0,1,.6-.16.53.53,0,0,1,.34.21.81.81,0,0,1,.12.43,1.77,1.77,0,0,1,0,.51,2.14,2.14,0,0,1-.18.43.48.48,0,0,1-.24.22,2.93,2.93,0,0,0-.56.21l-.8.4-.91.51-.9.52-.77.47a5.82,5.82,0,0,0-.5.32,18.13,18.13,0,0,1,2.51-.74,3.4,3.4,0,0,1,1.29-.11.92.92,0,0,1,.57.41,1.62,1.62,0,0,1,.26.67,1.72,1.72,0,0,1-.05.68A.61.61,0,0,1,11.21,55.91Z"/><path class="cls-6" d="M16.82,58.66l-1.25.85-1,.68-.82.6q-.37.28-.75.63l-.16.1-.15,0a.64.64,0,0,1-.68-.2.92.92,0,0,1-.14-.69,6.75,6.75,0,0,1-1.15-.13,3.28,3.28,0,0,1-1.11-.4.85.85,0,0,1-.32-.33,1.5,1.5,0,0,1-.19-.47,1.8,1.8,0,0,1,0-.52,1.09,1.09,0,0,1,.16-.48c.09-.14.18-.26.26-.37a2.61,2.61,0,0,1,.27-.31,3,3,0,0,1,.37-.31q.22-.16.54-.36a2.36,2.36,0,0,1,.84-.34,2.92,2.92,0,0,1,.88,0,2.09,2.09,0,0,1,.79.25,1.64,1.64,0,0,1,.57.54l.3.49c.1.16.19.33.27.49l.61-.32.6-.36a.27.27,0,0,0,.14-.22.43.43,0,0,0-.14-.24A2,2,0,0,0,15.2,57l-.44-.22c-.15-.07-.3-.12-.44-.17a2.61,2.61,0,0,0-.38-.08l-.41,0a1.33,1.33,0,0,1-.33-.08.3.3,0,0,1-.18-.14.29.29,0,0,1,0-.26.42.42,0,0,1,.19-.18,1.6,1.6,0,0,1,.35-.12,4.25,4.25,0,0,1,.44-.09l.48,0a3.37,3.37,0,0,1,1.17.15,3.52,3.52,0,0,1,1,.53,1,1,0,0,1,.3.48,2.36,2.36,0,0,1,.14.71,2.45,2.45,0,0,1-.05.72A.73.73,0,0,1,16.82,58.66ZM13,59.19c-.06-.1-.13-.2-.19-.32a4,4,0,0,0-.23-.34,1.66,1.66,0,0,0-.26-.27.44.44,0,0,0-.29-.12,2.49,2.49,0,0,0-.48,0,3,3,0,0,0-.52.07,2.34,2.34,0,0,0-.45.18.62.62,0,0,0-.27.29c0,.1,0,.18.19.25a2.66,2.66,0,0,0,.64.17q.39.07.87.12l.87.07Z"/><path class="cls-6" d="M22.41,61.91s-.12.06-.3.06-.37,0-.59,0l-.61-.05-.38,0-.45,0h-.59l-.6,0a1.48,1.48,0,0,0-.45.11,1.57,1.57,0,0,0,0,.63,7.59,7.59,0,0,0,.22.78c.09.26.17.51.25.75a1.9,1.9,0,0,1,.12.54.42.42,0,0,1-.18.34.36.36,0,0,1-.44,0,2.43,2.43,0,0,1-.54-.44,5.26,5.26,0,0,1-.45-.58,7,7,0,0,1-.36-.66c-.11-.22-.2-.44-.28-.63s-.1-.28-.15-.46a3.37,3.37,0,0,1-.12-.55c-.19.16-.38.34-.58.52s-.4.38-.61.6a.74.74,0,0,1-.35.21.35.35,0,0,1-.27-.1.81.81,0,0,1-.17-.32,1.12,1.12,0,0,1-.05-.45,1.48,1.48,0,0,1,.1-.49,1.18,1.18,0,0,1,.28-.45A10.35,10.35,0,0,1,16.32,60c.54-.4,1.11-.79,1.7-1.15s1.18-.72,1.79-1,1.18-.63,1.71-.9a1.22,1.22,0,0,1,.61-.16.46.46,0,0,1,.34.21.77.77,0,0,1,.12.42,1.6,1.6,0,0,1,0,.49,1.84,1.84,0,0,1-.17.43.4.4,0,0,1-.25.22,3.26,3.26,0,0,0-.6.23l-.87.43-1,.54c-.34.18-.65.36-.93.53a9.59,9.59,0,0,1,1.31,0,11.25,11.25,0,0,1,1.24.17,1.5,1.5,0,0,1,.46.18,1.57,1.57,0,0,1,.46.34,1,1,0,0,1,.28.44A.6.6,0,0,1,22.41,61.91Z"/><path class="cls-6" d="M27.63,64a1.41,1.41,0,0,1-.38.72,4.76,4.76,0,0,1-.73.6,4.21,4.21,0,0,1-.8.44,2.57,2.57,0,0,1-.64.21,2.22,2.22,0,0,1-.77,0,2.3,2.3,0,0,1-.79-.29,3.53,3.53,0,0,1-.78-.62A5.14,5.14,0,0,1,22,64l-.29.18a1.67,1.67,0,0,0-.23.23.74.74,0,0,0-.15.27.34.34,0,0,0,0,.22,1,1,0,0,0,.16.23l.27.27a2.29,2.29,0,0,0,.65.46,6,6,0,0,0,.81.34,7,7,0,0,0,.87.24c.29.06.55.11.79.14s.39.09.43.17,0,.16-.08.25a1.34,1.34,0,0,1-.44.27,4.31,4.31,0,0,1-.69.2,4.86,4.86,0,0,1-.69,0,3.64,3.64,0,0,1-.79-.06,6.18,6.18,0,0,1-.85-.21,4.36,4.36,0,0,1-.85-.4,2.79,2.79,0,0,1-.57-.42,2.27,2.27,0,0,1-.44-.55,1.58,1.58,0,0,1-.19-.64,1.12,1.12,0,0,1,.19-.66,5.85,5.85,0,0,1,3.57-2.5,4.45,4.45,0,0,1,.9-.15,4.62,4.62,0,0,1,.91,0,4.82,4.82,0,0,1,.86.14,2.7,2.7,0,0,1,.76.31,1.11,1.11,0,0,1,.29.25,2.21,2.21,0,0,1,.26.39,2.27,2.27,0,0,1,.16.46A1.24,1.24,0,0,1,27.63,64Zm-1.4.12c.06-.06.06-.11,0-.16a.54.54,0,0,0-.24-.14,2.9,2.9,0,0,0-.38-.11l-.44-.08a3.35,3.35,0,0,0-.4-.05l-.27,0a7.47,7.47,0,0,0-.92,0,3.05,3.05,0,0,0,.56.62,1.3,1.3,0,0,0,.68.32,1.42,1.42,0,0,0,.36,0,1.76,1.76,0,0,0,.4-.07,1.66,1.66,0,0,0,.37-.14A1.23,1.23,0,0,0,26.23,64.09Z"/><path class="cls-6" d="M5.39,53a2,2,0,0,0-.06-.46A3,3,0,0,0,5.18,52,3.45,3.45,0,0,0,5,51.6a1.9,1.9,0,0,0-.43-.54A4.46,4.46,0,0,0,4,50.65c-.2-.13-.39-.24-.59-.35l-.93,1.26c.2.09.4.19.61.31a4.93,4.93,0,0,1,.84.64.7.7,0,0,1-.33.3,3.62,3.62,0,0,1-.59.24,4.92,4.92,0,0,1-.71.17,6.67,6.67,0,0,1-.74.08,2,2,0,0,1-.35,0c-.36.5-.72,1-1.09,1.48a2.5,2.5,0,0,0,.38.15A4.21,4.21,0,0,0,1.55,55a6.67,6.67,0,0,0,1.16-.14,7.1,7.1,0,0,0,1.1-.37A4.72,4.72,0,0,0,4.72,54a2.38,2.38,0,0,0,.59-.66A.7.7,0,0,0,5.39,53Z"/><path class="cls-6" d="M4.86,50a2.58,2.58,0,0,1,.49.13.64.64,0,0,1,.13.26l.06.27a1.28,1.28,0,0,0,.26.56,1.25,1.25,0,0,0,.48.4.39.39,0,0,0,.45,0c.12-.1.18-.36.15-.78,0-.22,0-.42,0-.62a2,2,0,0,0,0-.55,1.26,1.26,0,0,0-.21-.51,1.55,1.55,0,0,0-.55-.47,2.32,2.32,0,0,0-.72-.24l-.49-.07L3.69,49.87H4.2A6.08,6.08,0,0,1,4.86,50Z"/></g></g></g></svg>