<svg xmlns="http://www.w3.org/2000/svg" viewBox="0 0 70 70"><defs><style>.cls-1{fill:#353134;}.cls-2{fill:#dd9d68;}.cls-3{fill:#f7ca8b;}.cls-4{fill:#b24b4b;}.cls-5{fill:#fcdea2;}.cls-6{fill:#e5152e;}.cls-7{fill:#bc0a41;}.cls-8{fill:#fff;}</style></defs><title>Asset 22</title><g id="Layer_2" data-name="Layer 2"><g id="Snacks"><rect class="cls-1" width="70" height="70"/><g id="PoppyCorn"><path class="cls-2" d="M51,49.08A8.53,8.53,0,0,0,49.69,48a7.61,7.61,0,0,0,1-.81,7.72,7.72,0,0,0-.4-10.88,8.49,8.49,0,0,0-2.58-1.77,8,8,0,0,0-1.85-8.79,8.73,8.73,0,0,0-1-.84,11.44,11.44,0,0,0-.91-1.07,9.64,9.64,0,0,0-9.52-2.57,7.82,7.82,0,0,0-1.77-2.69,7.19,7.19,0,0,0-10.15-.38,7.19,7.19,0,0,0,.38,10.15,7.66,7.66,0,0,0,5.61,2.29,10.11,10.11,0,0,0,9,8.68,8.09,8.09,0,0,0,2.27,7.46,8.53,8.53,0,0,0,1.34,1.09,7,7,0,0,0-1,.82c-2.89,2.89-2.71,7.76.4,10.88s8,3.3,10.88.4S54.14,52.2,51,49.08Z"/><circle class="cls-3" cx="31.9" cy="18.57" r="3.72"/><circle class="cls-4" cx="34.91" cy="19.32" r="2.13"/><circle class="cls-3" cx="34.91" cy="23.08" r="2.66"/><circle class="cls-5" cx="37.92" cy="18.57" r="3.72"/><circle class="cls-4" cx="25.13" cy="20.07" r="2.13"/><circle class="cls-3" cx="21.37" cy="17.06" r="4.79"/><circle class="cls-4" cx="17.61" cy="19.32" r="1.6"/><circle class="cls-5" cx="20.62" cy="20.07" r="3.19"/><circle class="cls-3" cx="39.77" cy="37.34" r="3.72"/><circle class="cls-4" cx="40.92" cy="34.46" r="2.13"/><circle class="cls-3" cx="44.65" cy="34.98" r="2.66"/><circle class="cls-5" cx="40.59" cy="31.38" r="3.72"/><circle class="cls-4" cx="49.11" cy="36.12" r="1.71"/><circle class="cls-3" cx="50.41" cy="32.47" r="3.85"/><circle class="cls-4" cx="47.71" cy="30.2" r="1.28"/><circle class="cls-5" cx="47.92" cy="32.69" r="2.57"/><ellipse class="cls-3" cx="54.6" cy="47.83" rx="2.14" ry="2.39" transform="translate(-5.94 87.88) rotate(-74.7)"/><ellipse class="cls-4" cx="52.71" cy="48.27" rx="1.22" ry="1.37" transform="translate(-7.75 86.38) rotate(-74.7)"/><ellipse class="cls-3" cx="51.47" cy="46.34" rx="1.53" ry="1.71" transform="translate(-6.81 83.76) rotate(-74.7)"/><ellipse class="cls-5" cx="51.32" cy="49.47" rx="2.14" ry="2.39" transform="translate(-9.94 85.92) rotate(-74.7)"/><circle class="cls-4" cx="43.84" cy="18.28" r="2.13"/><circle class="cls-3" cx="44.58" cy="23.04" r="4.79"/><circle class="cls-4" cx="48.88" cy="23.91" r="1.6"/><circle class="cls-5" cx="47.17" cy="21.33" r="3.19"/><ellipse class="cls-3" cx="32.66" cy="28.09" rx="2.94" ry="3.22" transform="translate(-6.24 46.61) rotate(-66.15)"/><ellipse class="cls-4" cx="32.25" cy="25.62" rx="1.68" ry="1.84" transform="translate(-4.22 44.76) rotate(-66.15)"/><ellipse class="cls-3" cx="35.2" cy="24.63" rx="2.1" ry="2.3" transform="translate(-1.56 46.87) rotate(-66.15)"/><ellipse class="cls-5" cx="30.66" cy="23.54" rx="2.94" ry="3.22" transform="translate(-3.27 42.06) rotate(-66.15)"/><circle class="cls-6" cx="15.35" cy="17.81" r="4.26"/><circle class="cls-6" cx="21.37" cy="23.83" r="4.26"/><circle class="cls-6" cx="27.39" cy="29.85" r="4.26"/><circle class="cls-6" cx="33.41" cy="35.87" r="4.26"/><circle class="cls-6" cx="39.42" cy="41.88" r="4.26"/><circle class="cls-6" cx="45.44" cy="47.9" r="4.26"/><ellipse class="cls-7" cx="48.83" cy="52.79" rx="4.26" ry="1.6" transform="translate(-23.03 49.99) rotate(-45)"/><ellipse class="cls-7" cx="49.58" cy="56.55" rx="4.26" ry="1.6" transform="translate(-25.47 51.62) rotate(-45)"/><ellipse class="cls-7" cx="50.33" cy="60.31" rx="4.26" ry="1.6" transform="translate(-27.91 53.25) rotate(-45)"/><path class="cls-7" d="M21.37,70H38.56l12.15-7.81L48.45,50.91Z"/><path class="cls-6" d="M0,32.32V70H21.37L48.45,50.91,12.34,14.8Z"/><path class="cls-8" d="M18.26,34.26a1.47,1.47,0,0,1-1,.79,4.17,4.17,0,0,1-1.57.11,10.32,10.32,0,0,1-1.94-.4,20.36,20.36,0,0,1-2-.72c-.67-.28-1.29-.57-1.88-.88a14.33,14.33,0,0,1-1.47-.87Q7.69,32.61,7,33l-1.47.72a.7.7,0,0,1-.83,0,1.06,1.06,0,0,1-.35-.73,2,2,0,0,1,.17-1,1.47,1.47,0,0,1,.74-.79c.73-.37,1.41-.71,2.05-1s1.25-.56,1.85-.8,1.23-.45,1.85-.64,1.3-.36,2-.52a1.53,1.53,0,0,1,.25-.59,1.57,1.57,0,0,1,.51-.45,1.26,1.26,0,0,1,.63-.14,1,1,0,0,1,.65.28c.25.22.48.42.67.61l.58.57a14.15,14.15,0,0,1,1,1.08,6.79,6.79,0,0,1,.87,1.39,5,5,0,0,1,.45,1.62A3.27,3.27,0,0,1,18.26,34.26Zm-1.42-1.51a3.64,3.64,0,0,0-.37-.63c-.17-.23-.35-.45-.54-.67s-.39-.43-.59-.63-.37-.38-.52-.53c-.66.11-1.29.24-1.88.39s-1.18.33-1.75.52c.46.25,1,.49,1.47.73a11.39,11.39,0,0,0,1.55.59,7.78,7.78,0,0,0,1.45.32A2.49,2.49,0,0,0,16.84,32.75Z"/><path class="cls-8" d="M24.75,42a6.66,6.66,0,0,1-.84,1,5.08,5.08,0,0,1-1.06.8,6.06,6.06,0,0,1-1.36.59,9.78,9.78,0,0,1-1.74.38,7.65,7.65,0,0,1-1.41.07,5.63,5.63,0,0,1-1.29-.23,5.06,5.06,0,0,1-1.22-.59,7.53,7.53,0,0,1-1.21-1,3.87,3.87,0,0,1-.82-1.26,5.65,5.65,0,0,1-.4-1.54,4.9,4.9,0,0,1,.07-1.49A2.3,2.3,0,0,1,14,37.61a6.09,6.09,0,0,1,.75-.72,3.79,3.79,0,0,1,.71-.47,4.6,4.6,0,0,1,.75-.33l.93-.34a4.68,4.68,0,0,1,1.09-.21,10.74,10.74,0,0,1,1.41,0,12.14,12.14,0,0,1,1.56.16,11.66,11.66,0,0,1,1.52.33,7.22,7.22,0,0,1,1.29.51,2.9,2.9,0,0,1,.9.7,3.55,3.55,0,0,1,.67,1.16,3.29,3.29,0,0,1,.14,1.2,3.46,3.46,0,0,1-.3,1.23A6.8,6.8,0,0,1,24.75,42Zm-1.23-1.49a1.17,1.17,0,0,0,.39-.76.84.84,0,0,0-.3-.67,2.36,2.36,0,0,0-1-.49,11.76,11.76,0,0,0-1.52-.35,11.67,11.67,0,0,0-1.68-.18,6.47,6.47,0,0,0-1.45.07l-.69.09a4.51,4.51,0,0,0-.7.13,4.12,4.12,0,0,0-.69.27,2,2,0,0,0-.62.48.94.94,0,0,0-.31.76,1.4,1.4,0,0,0,.44.77,5,5,0,0,0,1.27.93,5.56,5.56,0,0,0,1.39.47,5.68,5.68,0,0,0,1.42.12A7.45,7.45,0,0,0,20.87,42a4.51,4.51,0,0,0,1.45-.57A6.12,6.12,0,0,0,23.52,40.55Z"/><path class="cls-8" d="M33.56,49.57a1.46,1.46,0,0,1-1,.78,4.15,4.15,0,0,1-1.57.11,10.07,10.07,0,0,1-1.93-.4,17.59,17.59,0,0,1-2-.72c-.66-.27-1.29-.57-1.88-.88a15.51,15.51,0,0,1-1.47-.87c-.47.21-.93.43-1.41.66L20.82,49A.7.7,0,0,1,20,49a1.05,1.05,0,0,1-.36-.74,2.16,2.16,0,0,1,.17-1,1.54,1.54,0,0,1,.74-.79l2.05-1q.95-.45,1.86-.81c.61-.23,1.22-.45,1.84-.64s1.3-.36,2-.52a1.47,1.47,0,0,1,.75-1,1.17,1.17,0,0,1,.63-.15,1.07,1.07,0,0,1,.65.28c.26.22.48.43.67.61l.59.58a13.89,13.89,0,0,1,.95,1.07,6.9,6.9,0,0,1,.88,1.4,4.87,4.87,0,0,1,.44,1.61A3.23,3.23,0,0,1,33.56,49.57Zm-1.42-1.52a3.09,3.09,0,0,0-.37-.63,6.51,6.51,0,0,0-.54-.66c-.19-.22-.39-.43-.58-.64l-.52-.53a19,19,0,0,0-1.89.4c-.6.15-1.18.32-1.75.51.46.25,1,.5,1.47.74a14.83,14.83,0,0,0,1.55.59,9.65,9.65,0,0,0,1.46.32A2.57,2.57,0,0,0,32.14,48.05Z"/><path class="cls-8" d="M30.15,55.77a1.39,1.39,0,0,1-.69.31,4.08,4.08,0,0,1-1,.06,4.56,4.56,0,0,1-1-.2,2,2,0,0,1-.79-.44,1.27,1.27,0,0,1-.37-.87,1.26,1.26,0,0,1,.41-.92.86.86,0,0,1,.46-.21,3.23,3.23,0,0,1,.63,0c.22,0,.44,0,.65.06a3.54,3.54,0,0,1,.52.11,2.11,2.11,0,0,1,.59.27,2.46,2.46,0,0,1,.6.51,1.37,1.37,0,0,1,.31.67A.81.81,0,0,1,30.15,55.77Zm9.05-3.14a2,2,0,0,1-1,.48,8.68,8.68,0,0,1-1.25.13H35.77a3.19,3.19,0,0,0-.79.05,5,5,0,0,1-.75.15l-.74.13a6.58,6.58,0,0,0-.74.17,3.6,3.6,0,0,0-.74.32c-.23.14-.42.16-.56.06a.59.59,0,0,1-.25-.43,1.24,1.24,0,0,1,.58-1.18,11.71,11.71,0,0,1,1.59-.78c.55-.22,1.11-.43,1.69-.63l1.71-.59c.57-.2,1.14-.41,1.69-.65a.84.84,0,0,1,.93,0,1.32,1.32,0,0,1,.38.82,2.75,2.75,0,0,1-.1,1.09A1.7,1.7,0,0,1,39.2,52.63Z"/><circle class="cls-4" cx="59.74" cy="25.18" r="1.05"/><circle class="cls-3" cx="57.39" cy="25.59" r="2.36"/><circle class="cls-4" cx="57" cy="27.72" r="0.79"/><circle class="cls-5" cx="58.26" cy="26.85" r="1.58"/><ellipse class="cls-3" cx="60.74" cy="42.66" rx="3.22" ry="3.32" transform="translate(-8.05 14.77) rotate(-13.01)"/><ellipse class="cls-4" cx="58.87" cy="40.66" rx="1.84" ry="1.9" transform="translate(-7.64 14.3) rotate(-13.01)"/><ellipse class="cls-3" cx="60.57" cy="37.84" rx="2.3" ry="2.37" transform="translate(-6.96 14.61) rotate(-13.01)"/><ellipse class="cls-5" cx="56.31" cy="39.8" rx="3.22" ry="3.32" transform="translate(-7.51 13.7) rotate(-13.01)"/></g></g></g></svg>