<svg xmlns="http://www.w3.org/2000/svg" viewBox="0 0 1920 907"><defs><style>.cls-1{fill:#ed2144;}.cls-1,.cls-2{opacity:0.4;}.cls-2{fill:#2454ea;}.cls-3{fill:#2f3638;}</style></defs><title>big3dGlasses</title><g id="Layer_2" data-name="Layer 2"><g id="Vision_obstructions" data-name="Vision obstructions"><g id="_3D_Glasses" data-name="3D Glasses"><path class="cls-1" d="M0,77H771a80,80,0,0,1,80,80V671A160,160,0,0,1,691,831H0a0,0,0,0,1,0,0V77A0,0,0,0,1,0,77Z"/><path class="cls-2" d="M1069,77h691a160,160,0,0,1,160,160V751a80,80,0,0,1-80,80H1069a0,0,0,0,1,0,0V77A0,0,0,0,1,1069,77Z" transform="translate(2989 908) rotate(-180)"/><path class="cls-3" d="M1149,77h771V0H0V77H771a80,80,0,0,1,80,80V671A160,160,0,0,1,691,831H0v76H729.36a213.94,213.94,0,0,0,100.09-31c28-17,85-51.58,94.87-111,4.19-25.18-.59-51.67,3.48-116,.59-9.42,2-28.25,13.92-38,6.31-5.17,13.49-6,18.28-6s12,.83,18.28,6c11.89,9.75,13.33,28.58,13.92,38,4.07,64.33-.71,90.82,3.48,116,9.91,59.42,66.84,94,94.87,111a213.94,213.94,0,0,0,100.09,31H1920V831H1229a160,160,0,0,1-160-160V157A80,80,0,0,1,1149,77Z"/></g></g></g></svg>