<svg xmlns="http://www.w3.org/2000/svg" xmlns:xlink="http://www.w3.org/1999/xlink" viewBox="0 0 1920 321.75"><defs><style>.cls-1{fill:url(#radial-gradient);}.cls-2{fill:#17332a;}.cls-3{fill:none;stroke:#17332a;stroke-miterlimit:10;stroke-width:10px;}</style><radialGradient id="radial-gradient" cx="1053.6" cy="-88.88" r="1862.72" gradientTransform="translate(2054.48 -420.23) rotate(163.78) scale(1 0.43)" gradientUnits="userSpaceOnUse"><stop offset="0" stop-color="#193829"/><stop offset="0.24" stop-color="#193d2b"/><stop offset="0.5" stop-color="#1b4a33"/><stop offset="0.78" stop-color="#1d603f"/><stop offset="1" stop-color="#1f774b"/></radialGradient></defs><title>bigHat</title><g id="Layer_2" data-name="Layer 2"><g id="Vision_obstructions" data-name="Vision obstructions"><g id="Cap"><path class="cls-1" d="M960,.58H0v100c47.73,143.9,112.42,192.8,162.35,211,114,41.55,209-53.87,430.59-112,105.25-27.6,191.51-30.73,364-37l3-.1,3,.1c168.52,6.12,255,8.42,364,37,221.64,58.13,316.62,153.55,430.59,112,49.93-18.2,114.62-67.1,162.35-211V.58Z"/><path class="cls-2" d="M1726.9,311.58c41.6-15.76,78.85-58.36,78.85-58.36,44.61-51.06,62.41-105.6,77.25-152.64a645,645,0,0,0,23-100h14v100c-47.73,143.9-112.42,192.8-162.35,211a166.21,166.21,0,0,1-71.93,9.56A153.92,153.92,0,0,0,1726.9,311.58Z"/><path class="cls-2" d="M193.1,311.58c-41.6-15.76-78.85-58.36-78.85-58.36C69.64,202.16,51.84,147.62,37,100.58A645,645,0,0,1,14,.58H0v100c47.73,143.9,112.42,192.8,162.35,211a166.21,166.21,0,0,0,71.93,9.56A153.92,153.92,0,0,1,193.1,311.58Z"/><path class="cls-3" d="M156,.58c-3.45,29.28-5.57,80.85,15,139,14.95,42.29,25.36,71.77,52,87,49.95,28.56,106.54-23,241-63,38-11.31,78-18.25,158-32,335-57.54,633.18-8.69,683.78,0,80,13.75,120,20.69,158,32,134.46,40,191.06,91.56,241,63,26.65-15.23,37-44.71,52-87,20.57-58.15,18.45-109.72,15-139"/></g></g></g></svg>