<svg xmlns="http://www.w3.org/2000/svg" xmlns:xlink="http://www.w3.org/1999/xlink" viewBox="0 0 1920 283.73"><defs><style>.cls-1{fill:url(#radial-gradient);}.cls-2{fill:url(#radial-gradient-2);}</style><radialGradient id="radial-gradient" cx="1297.11" cy="31.46" r="473.83" gradientUnits="userSpaceOnUse"><stop offset="0" stop-color="#635b42"/><stop offset="1" stop-color="#362b1e"/></radialGradient><radialGradient id="radial-gradient-2" cx="860.28" cy="14.76" r="343.25" xlink:href="#radial-gradient"/></defs><title>bigStache_1</title><g id="Layer_2" data-name="Layer 2"><g id="Vision_obstructions" data-name="Vision obstructions"><g id="Stache"><path class="cls-1" d="M1829.24,60c7.41,3,44.51,19,58,58,7.69,22.3,5.17,44.95,0,57.95-21.43,54-140,71.38-231.79,58C1449.29,203.7,1415.83,23.83,1249.75,2,1188.22-6,1091.88,5.42,960,117.94V283.73h960V52.3C1886.1,45.52,1853.1,52.34,1829.24,60Z"/><path class="cls-2" d="M960,117.94C828.12,5.42,731.78-6,670.25,2,504.17,23.83,470.71,203.7,264.6,233.84c-91.81,13.43-210.36-4-231.79-58-5.17-13-7.69-35.65,0-57.95C46.25,79,83.35,63,90.76,60,66.9,52.34,33.9,45.52,0,52.3V283.73H960Z"/></g></g></g></svg>