<svg xmlns="http://www.w3.org/2000/svg" xmlns:xlink="http://www.w3.org/1999/xlink" viewBox="0 0 1920 1119.74"><defs><style>.cls-1{fill:url(#linear-gradient);}.cls-2{fill:url(#linear-gradient-2);}</style><linearGradient id="linear-gradient" x1="1467.43" y1="90.1" x2="1481.73" y2="1050.1" gradientUnits="userSpaceOnUse"><stop offset="0" stop-opacity="0.8"/><stop offset="1" stop-color="#603813" stop-opacity="0.5"/></linearGradient><linearGradient id="linear-gradient-2" x1="442.06" y1="105.38" x2="456.35" y2="1065.38" xlink:href="#linear-gradient"/></defs><title>bigSunGlasses</title><g id="Layer_2" data-name="Layer 2"><g id="Vision_obstructions" data-name="Vision obstructions"><g id="Sunglasses"><path class="cls-1" d="M1920,1043.2c-89.19,22.55-297.91,61.4-515-33-48.65-21.15-136.64-60.5-217-149-102.37-112.73-134.19-241.14-149-304a775.28,775.28,0,0,1-19-127v-196c.37-11.93,2.62-30.08,13-48,26.6-45.88,86.94-56.25,117-61,300.36-47.38,482-42,482-42,78.22,2.32,175.64,6,288,12Z"/><path class="cls-2" d="M0,1043.2c89.19,22.55,297.91,61.4,515-33,48.65-21.15,136.64-60.5,217-149,102.37-112.73,134.19-241.14,149-304a775.28,775.28,0,0,0,19-127v-196c-.37-11.93-2.62-30.08-13-48-26.6-45.88-86.94-56.25-117-61-300.36-47.38-482-42-482-42-78.22,2.32-175.64,6-288,12Z"/><path d="M1033,188.2c26.6-45.88,86.94-56.25,117-61,300.36-47.38,482-42,482-42,78.22,2.32,175.64,6,288,12V0c-299.18,6.61-816,72.44-899.66,129.22H899.66C816,72.44,299.18,6.61,0,0V97.2c112.36-6,209.78-9.68,288-12,0,0,181.64-5.38,482,42,30.06,4.75,90.4,15.12,117,61,10.38,17.92,12.63,36.07,13,48v196a775.28,775.28,0,0,1-19,127c-14.81,62.86-46.63,191.27-149,304-80.36,88.5-168.35,127.85-217,149-217.09,94.4-425.81,55.55-515,33v61.52c68.35,9.7,132.24,11.08,182.29,12.16,133.57,2.87,321.6,6.88,497.34-139.39,198-164.79,245.38-408,256.45-475.58h47.84C995,571.5,1042.37,814.7,1240.37,979.49c175.74,146.27,363.77,142.26,497.34,139.39,50-1.08,113.94-2.46,182.29-12.16V1045.2c-89.19,22.55-297.91,61.4-515-33-48.65-21.15-136.64-60.5-217-149-102.37-112.73-134.19-241.14-149-304a775.28,775.28,0,0,1-19-127v-196C1020.37,224.27,1022.62,206.12,1033,188.2Z"/></g></g></g></svg>