<svg xmlns="http://www.w3.org/2000/svg" viewBox="0 0 70 70"><defs><style>.cls-1{fill:#353134;}.cls-2{opacity:0.99;}.cls-3{fill:#fffdff;}.cls-4{fill:none;stroke:#353134;stroke-linecap:round;stroke-linejoin:round;stroke-width:2px;}.cls-5{fill:#c0c9cc;}.cls-6{fill:#ed2144;}.cls-7{fill:#2454ea;}</style></defs><title>3dGlasses</title><g id="Layer_2" data-name="Layer 2"><g id="Mini_Icons" data-name="Mini Icons"><rect class="cls-1" width="70" height="70"/><g id="Base" class="cls-2"><circle class="cls-3" cx="35" cy="31" r="21"/><path class="cls-3" d="M36,54c-13.81,0-25,5.82-25,13a7.18,7.18,0,0,0,.68,3H60.32A7.18,7.18,0,0,0,61,67C61,59.82,49.81,54,36,54Z"/></g><g id="_3D_glasses" data-name="3D glasses"><path class="cls-4" d="M27,42.3A63,63,0,0,0,37,41a62.46,62.46,0,0,0,7.15-2A5.16,5.16,0,0,1,43,41.76c-2.08,2.52-6.95,2.8-12,.4"/><path class="cls-4" d="M24,26a10.53,10.53,0,0,0,6-2,9.65,9.65,0,0,0,2-2"/><path class="cls-5" d="M11,24V34a3.53,3.53,0,0,0,1,2,3.59,3.59,0,0,0,2.49,1H29.82c2.09-.49,2.86-1.34,3.18-2,.63-1.29,0-2.72,1-4a3.2,3.2,0,0,1,1-.81h0A3.2,3.2,0,0,1,36,31c1,1.28.37,2.71,1,4,.32.66,1.09,1.51,3.18,2H55.51A3.59,3.59,0,0,0,58,36a3.53,3.53,0,0,0,1-2V24Z"/><rect class="cls-6" x="16" y="26" width="15" height="9" rx="2.43"/><rect class="cls-7" x="39" y="26" width="15" height="9" rx="2.43" transform="translate(93 61) rotate(-180)"/><path class="cls-4" d="M40,20a7.19,7.19,0,0,1,6,0,6.87,6.87,0,0,1,3,3"/></g></g></g></svg>