<svg xmlns="http://www.w3.org/2000/svg" viewBox="0 0 70 70"><defs><style>.cls-1{fill:#353134;}.cls-2{opacity:0.99;}.cls-3{fill:#fffdff;}.cls-10,.cls-4{fill:none;stroke-linecap:round;stroke-miterlimit:10;}.cls-4{stroke:#353134;stroke-width:2px;}.cls-5{fill:#c0c9cc;}.cls-6{fill:#ed2144;}.cls-7{fill:#e5da51;}.cls-8{fill:#436fdd;}.cls-9{fill:#1f774b;}.cls-10{stroke:#1caf49;stroke-width:4px;}</style></defs><title>hat</title><g id="Layer_2" data-name="Layer 2"><g id="Mini_Icons" data-name="Mini Icons"><rect class="cls-1" width="70" height="70"/><g id="Base" class="cls-2"><circle class="cls-3" cx="35" cy="31" r="21"/><path class="cls-3" d="M36,54c-13.81,0-25,5.82-25,13a7.18,7.18,0,0,0,.68,3H60.32A7.18,7.18,0,0,0,61,67C61,59.82,49.81,54,36,54Z"/></g><g id="Propeller_Hat" data-name="Propeller Hat"><g id="Face"><path class="cls-4" d="M23.5,38.5a44.53,44.53,0,0,0,12,1,44.6,44.6,0,0,0,11-2"/><circle class="cls-1" cx="30" cy="33" r="2"/><circle class="cls-1" cx="39" cy="33" r="2"/></g><rect class="cls-5" x="34" y="4" width="2" height="5"/><path class="cls-6" d="M35,8C22.85,8,13,16.92,13,27.93V32h1a13.22,13.22,0,0,1,1-1c1.58-1.43,3.93-2.86,10-4a59.35,59.35,0,0,1,10-1Z"/><path class="cls-7" d="M20,23a14.93,14.93,0,0,0,.86,5A40.12,40.12,0,0,1,25,27a59.35,59.35,0,0,1,10-1V8A15,15,0,0,0,20,23Z"/><path class="cls-6" d="M35,8c12.15,0,22,8.92,22,19.93V32H56a13.22,13.22,0,0,0-1-1c-1.58-1.43-3.93-2.86-10-4a59.35,59.35,0,0,0-10-1Z"/><path class="cls-8" d="M50,23a14.93,14.93,0,0,1-.86,5A40.12,40.12,0,0,0,45,27a59.35,59.35,0,0,0-10-1V8A15,15,0,0,1,50,23Z"/><path class="cls-8" d="M26,2c-5,0-9,.9-9,2H35C35,2.9,31,2,26,2Z"/><path class="cls-8" d="M44,2c-5,0-9,.9-9,2H53C53,2.9,49,2,44,2Z"/><path class="cls-5" d="M30.48,8.42A13.72,13.72,0,0,0,35,9a13.72,13.72,0,0,0,4.52-.58,24.53,24.53,0,0,0-9,0Z"/><path class="cls-9" d="M16,29.8a28.09,28.09,0,0,1,19-7.6,28.08,28.08,0,0,1,19,7.6L53,31a42.5,42.5,0,0,0-36,0Z"/><path class="cls-10" d="M16,29.8a28.09,28.09,0,0,1,19-7.6,28.08,28.08,0,0,1,19,7.6"/></g></g></g></svg>