<svg xmlns="http://www.w3.org/2000/svg" viewBox="0 0 70 70"><defs><style>.cls-1{fill:#353134;}.cls-2{opacity:0.99;}.cls-3{fill:#fffdff;}.cls-4{fill:none;stroke:#353134;stroke-linecap:round;stroke-miterlimit:10;stroke-width:2px;}.cls-5{fill:#938455;}</style></defs><title>stache</title><g id="Layer_2" data-name="Layer 2"><g id="Mini_Icons" data-name="Mini Icons"><rect class="cls-1" width="70" height="70"/><g id="Base" class="cls-2"><circle class="cls-3" cx="35" cy="31" r="21"/><path class="cls-3" d="M36,54c-13.81,0-25,5.82-25,13a7.18,7.18,0,0,0,.68,3H60.32A7.18,7.18,0,0,0,61,67C61,59.82,49.81,54,36,54Z"/></g><g id="Face"><path class="cls-4" d="M26,27a80.72,80.72,0,0,0,9.5.5A80.44,80.44,0,0,0,44,27"/><circle class="cls-1" cx="29" cy="30" r="2"/><circle class="cls-1" cx="41" cy="30" r="2"/><path class="cls-5" d="M62.61,37.64a4,4,0,0,0-2.08-2.12,4.33,4.33,0,0,0-3,0A2.67,2.67,0,0,1,59,37a2.3,2.3,0,0,1,0,1.5c-.56,1.4-3.63,1.85-6,1.5-5.34-.78-6.21-5.44-10.51-6-1.6-.21-4.09.09-7.51,3-3.42-2.91-5.91-3.21-7.51-3-4.3.56-5.17,5.22-10.51,6-2.38.35-5.45-.1-6-1.5A2.3,2.3,0,0,1,11,37a2.67,2.67,0,0,1,1.5-1.5,4.33,4.33,0,0,0-3,0,4,4,0,0,0-2.08,2.12C6.31,40,7.79,42.72,8,43c3.08,5.41,14.07,4.74,18,4.5A43.44,43.44,0,0,0,35,46a43.44,43.44,0,0,0,9,1.5c4,.24,14.94.91,18-4.5C62.21,42.72,63.69,40,62.61,37.64Z"/></g></g></g></svg>