<svg xmlns="http://www.w3.org/2000/svg" viewBox="0 0 70 70"><defs><style>.cls-1{fill:#353134;}.cls-2{opacity:0.99;}.cls-3{fill:#fffdff;}.cls-4{fill:none;stroke:#353134;stroke-linecap:round;stroke-miterlimit:10;stroke-width:2px;}.cls-5{fill:#1c191a;}.cls-6{fill:#fff;}</style></defs><title>sunGlasses</title><g id="Layer_2" data-name="Layer 2"><g id="Mini_Icons" data-name="Mini Icons"><rect class="cls-1" width="70" height="70"/><g id="Base" class="cls-2"><circle class="cls-3" cx="35" cy="31" r="21"/><path class="cls-3" d="M36,54c-13.81,0-25,5.82-25,13a7.18,7.18,0,0,0,.68,3H60.32A7.18,7.18,0,0,0,61,67C61,59.82,49.81,54,36,54Z"/></g><g id="Sunglasses"><path class="cls-4" d="M30,43c2,.09,3.7.06,5,0,3.87-.18,7.44-.37,8-2a1.68,1.68,0,0,0,0-1"/><path class="cls-5" d="M50.4,22A30.54,30.54,0,0,0,37,24H33A30.54,30.54,0,0,0,19.6,22a29.79,29.79,0,0,0-9.6,2.4V29a11.55,11.55,0,0,0,3.6,7.44c5.19,4.57,12.71,1.41,13.2,1.2a14.75,14.75,0,0,0,7.2-7.2V30h2v.42a14.75,14.75,0,0,0,7.2,7.2c.49.21,8,3.37,13.2-1.2A11.55,11.55,0,0,0,60,29V24.42A29.79,29.79,0,0,0,50.4,22Z"/><path class="cls-6" d="M24.59,23.87l-7.46,12a10,10,0,0,0,6.69.59L30.2,26.2C28.92,24.52,26.79,24,24.59,23.87Z"/><path class="cls-6" d="M49.69,24l-1.14-.08L41.9,34.63a13.14,13.14,0,0,0,2.32,1.25,12.92,12.92,0,0,0,3.45.83L54.82,25.2A11.72,11.72,0,0,0,49.69,24Z"/></g></g></g></svg>