<svg xmlns="http://www.w3.org/2000/svg" viewBox="0 0 139 62"><defs><style>.cls-1{fill:#58605b;}.cls-2{fill:#91c15d;}.cls-3{fill:#fff;}.cls-4{fill:#353134;}.cls-5{fill:#dfefcb;}</style></defs><title>exit-sign</title><g id="Layer_2" data-name="Layer 2"><g id="Props"><g id="Exit"><rect class="cls-1" x="16" width="8" height="62" transform="translate(40 62) rotate(180)"/><rect class="cls-2" x="13.5" y="5.5" width="119" height="51"/><path class="cls-3" d="M130,8V54H16V8H130m5-5H11V59H135V3Z"/><rect class="cls-4" width="16" height="62"/><rect class="cls-1" x="12" width="4" height="62"/><rect class="cls-5" x="135" y="3" width="4" height="56"/><path class="cls-3" d="M20,50.88V11.32h21.4v.15c0,2.84,0,5.69,0,8.53a.32.32,0,0,1-.08.21l-2.87,2.88-.08.07v-8.8H23V47.83h15.3V39.07a.76.76,0,0,1,.15.1L41.3,42a.26.26,0,0,1,.07.17q0,4.34,0,8.66s0,0,0,.06Z"/><path class="cls-3" d="M44,29.56v3H31.83l3.45,3.45-2.16,2.17L26,31.1,33.13,24l2.12,2.12-3.47,3.47Z"/><path class="cls-3" d="M67.48,32.25H56.33V46.67H68.76V51H52.63V11H68.12v4.33H56.33V28H67.48Z"/><path class="cls-3" d="M89.27,51l-3.66-8.84c-1.49-3.39-2.43-5.58-3.32-7.9h-.08c-.81,2.32-1.62,4.46-3.11,8L75.65,51H71.39l8.77-20.24L71.73,11H76l3.79,9.38C80.89,23,81.69,25,82.46,27.14h.13c.81-2.37,1.53-4.21,2.6-6.76L89.1,11h4.26L84.63,30.47,93.57,51Z"/><path class="cls-3" d="M101.57,11V51h-3.7V11Z"/><path class="cls-3" d="M113.49,15.39h-8.73V11H126v4.39h-8.77V51h-3.74Z"/></g></g></g></svg>