<svg xmlns="http://www.w3.org/2000/svg" xmlns:xlink="http://www.w3.org/1999/xlink" viewBox="0 0 2502.92 1549"><defs><style>.cls-1{fill:#1c191a;}.cls-2{fill:url(#radial-gradient);}.cls-3{fill:url(#radial-gradient-2);}.cls-4{fill:#282627;}.cls-5,.cls-6,.cls-7{fill:none;stroke-linecap:round;stroke-linejoin:round;stroke-width:5px;}.cls-5{stroke:#353334;}.cls-6{stroke:#4f4e4d;}.cls-7{stroke:#232122;}.cls-8{fill:#353334;}.cls-9{fill:#2b292a;}.cls-10{fill:#232122;}.cls-11{fill:#211f20;}.cls-12{fill:#1e1b1c;}</style><radialGradient id="radial-gradient" cx="1249.35" cy="661.81" r="1227.6" gradientTransform="translate(54.72) scale(0.98 1)" gradientUnits="userSpaceOnUse"><stop offset="0" stop-color="#292827"/><stop offset="1" stop-color="#1c191a"/></radialGradient><radialGradient id="radial-gradient-2" cx="1308.99" cy="661.81" r="1227.6" gradientTransform="translate(0.04 0) scale(0.98 1)" gradientUnits="userSpaceOnUse"><stop offset="0" stop-color="#292826"/><stop offset="1" stop-color="#1c191a"/></radialGradient></defs><title>full-cinema</title><g id="Layer_2" data-name="Layer 2"><g id="Walls"><rect class="cls-1" x="1.76" width="2500" height="342"/><rect class="cls-1" x="1.76" y="912" width="2500" height="588"/><path class="cls-2" d="M2501.76,1500l-570-522V342l570-342Z"/><path class="cls-3" d="M1.76,1500l570-522V342L1.76,0Z"/></g><g id="Props"><g id="Lamps_R" data-name="Lamps R"><path class="cls-4" d="M2105.31,624H2087.1l-52.34-42.1,48.93-6.83Q2094.49,599.54,2105.31,624Z"/><path class="cls-1" d="M2133.76,575.07h-50.07q10.8,24.46,21.62,48.93h14.79Q2126.93,599.54,2133.76,575.07Z"/><path class="cls-5" d="M2086.76,624l-52-42,19-3"/><path class="cls-4" d="M1990.65,624h-11.58l-33.31-26.79,31.13-4.35Q1983.78,608.43,1990.65,624Z"/><path class="cls-1" d="M2008.76,592.86h-31.87q6.88,15.57,13.76,31.14h9.42Q2004.41,608.43,2008.76,592.86Z"/><path class="cls-5" d="M1978.85,624l-33.09-26.73,12.09-1.91"/><path class="cls-4" d="M2278.1,622h-25.38l-73-58.69,68.2-9.52Z"/><path class="cls-1" d="M2317.76,553.79H2248L2278.1,622h20.62Z"/><path class="cls-5" d="M2252.24,622l-72.48-58.55,26.48-4.18"/><path class="cls-4" d="M2501.17,625l-114.42-92,114.41-16Z"/><path class="cls-5" d="M2500.42,625l-113.67-91.81,41.53-6.56"/></g><g id="Lamps_L" data-name="Lamps L"><path class="cls-4" d="M392.62,624h18.21l52.34-42.1-48.93-6.83Q403.44,599.54,392.62,624Z"/><path class="cls-1" d="M364.17,575.07h50.07q-10.8,24.46-21.62,48.93H377.83Q371,599.54,364.17,575.07Z"/><path class="cls-5" d="M411.17,624l52-42-19-3"/><path class="cls-4" d="M507.28,624h11.58l33.31-26.79L521,592.86Q514.16,608.43,507.28,624Z"/><path class="cls-1" d="M489.17,592.86H521q-6.88,15.57-13.76,31.14h-9.42Q493.53,608.43,489.17,592.86Z"/><path class="cls-5" d="M519.08,624l33.09-26.73-12.09-1.91"/><path class="cls-4" d="M219.83,622h25.38l73-58.69L250,553.79Z"/><path class="cls-1" d="M180.17,553.79H250L219.83,622H199.21Z"/><path class="cls-5" d="M245.69,622l72.48-58.55-26.48-4.18"/><path class="cls-4" d="M1.75,624l114.42-92L1.76,516Z"/><path class="cls-5" d="M2.5,624l113.67-91.81-41.53-6.56"/></g><g id="Curtain_L" data-name="Curtain L"><path class="cls-1" d="M654.76,1008l-87-.5V331c6.91-10,18.09-15.45,29-14a29.17,29.17,0,0,1,17,9,19.9,19.9,0,0,1,15-4,19.23,19.23,0,0,1,10,5,97.36,97.36,0,0,1,37-2,96.29,96.29,0,0,1,22.5,6c.73,68.17-.74,131.37-3.5,189-3.58,74.52-8.48,122.63-34,177a341.63,341.63,0,0,1-19,35v18c.4,1.13,1.15,3.28,2,6a186.4,186.4,0,0,1,5,21C650.53,787.32,653.63,880.43,654.76,1008Z"/><path class="cls-5" d="M625.76,750c1.74,8.26,4,20.33,6,35a488.38,488.38,0,0,1,4,69c0,37.74.06,79,0,124"/><path class="cls-6" d="M654.26,982.5c-.77-36.29-1-65.7-1-86-.06-28.34-2.26-56.66-2-85a177.52,177.52,0,0,0-4-41,175,175,0,0,0-6-21q.5-9,1-18a298,298,0,0,0,30.5-60.5c8.18-22.24,13.24-44.34,18-87,4.32-38.8,6-73.42,7-147,.34-26.32.64-62.36.5-105.5a67.61,67.61,0,0,0-42-7"/><path class="cls-5" d="M628.26,731.5a600.18,600.18,0,0,0,23-60c28-86.69,28.3-155.78,28-238-.11-28-.54-86.64-11-88-1.84-.24-3.58,1.34-5,3-18.52,21.59-8.91,85.63-6,126a508.71,508.71,0,0,1-2,93"/><path class="cls-7" d="M605.26,731.5q3.75-24.59,7-50c7.28-57.37,11.74-112.48,14-165"/><line class="cls-7" x1="605.26" y1="750.5" x2="605.26" y2="927.5"/><path class="cls-7" d="M602.26,318.5a29.25,29.25,0,0,1,12,7q-3.51,74-7,148"/><rect class="cls-4" x="564.76" y="732" width="82" height="18"/></g><g id="Curtain_R" data-name="Curtain R"><path class="cls-1" d="M1848.76,1008l87-.5V331c-6.92-10-18.1-15.45-29-14a29.1,29.1,0,0,0-17,9,19.94,19.94,0,0,0-15-4,19.14,19.14,0,0,0-10,5,97.38,97.38,0,0,0-37-2,96,96,0,0,0-22.5,6c-.74,68.17.73,131.37,3.5,189,3.57,74.52,8.48,122.63,34,177a339.68,339.68,0,0,0,19,35v18c-.41,1.13-1.16,3.28-2,6a183.89,183.89,0,0,0-5,21C1853,787.32,1849.89,880.43,1848.76,1008Z"/><path class="cls-5" d="M1877.76,750c-1.75,8.26-4.06,20.33-6,35a486.85,486.85,0,0,0-4,69c0,37.74-.07,79,0,124"/><path class="cls-6" d="M1849.26,982.5c.76-36.29,1-65.7,1-86,0-28.34,2.25-56.66,2-85a176.36,176.36,0,0,1,4-41,171.31,171.31,0,0,1,6-21q-.51-9-1-18a297.5,297.5,0,0,1-30.5-60.5c-8.18-22.24-13.25-44.34-18-87-4.33-38.8-6-73.42-7-147-.34-26.32-.65-62.36-.5-105.5a67.39,67.39,0,0,1,16-6,68.4,68.4,0,0,1,26-1"/><path class="cls-5" d="M1875.26,731.5a595.26,595.26,0,0,1-23-60c-28-86.69-28.31-155.78-28-238,.1-28,.53-86.64,11-88,1.83-.24,3.57,1.34,5,3,18.51,21.59,8.9,85.63,6,126a506.89,506.89,0,0,0,2,93"/><path class="cls-7" d="M1898.26,731.5q-3.77-24.59-7-50c-7.29-57.37-11.74-112.48-14-165"/><line class="cls-7" x1="1898.26" y1="750.5" x2="1898.26" y2="927.5"/><path class="cls-7" d="M1901.26,318.5a28.7,28.7,0,0,0-5,2,29.2,29.2,0,0,0-7,5q3.49,74,7,148"/><rect class="cls-4" x="1856.76" y="732" width="82" height="18"/></g></g><g id="Crowd"><g id="_6" data-name="6"><g id="_6-2" data-name="6"><circle class="cls-8" cx="714.82" cy="911.09" r="34.31"/><rect class="cls-8" x="653.18" y="928.53" width="122.69" height="122.69" rx="40"/><rect class="cls-8" x="787.5" y="928.53" width="122.69" height="122.69" rx="40"/><rect class="cls-8" x="921.82" y="928.53" width="122.69" height="122.69" rx="40"/><rect class="cls-8" x="1056.14" y="928.53" width="122.69" height="122.69" rx="40"/><rect class="cls-8" x="1190.46" y="928.53" width="122.69" height="122.69" rx="40"/><rect class="cls-8" x="1324.78" y="928.53" width="122.69" height="122.69" rx="40"/><rect class="cls-8" x="1459.1" y="928.53" width="122.69" height="122.69" rx="40"/><rect class="cls-8" x="1593.42" y="928.53" width="122.69" height="122.69" rx="40"/><rect class="cls-8" x="1727.74" y="928.53" width="122.69" height="122.69" rx="40"/><rect class="cls-8" x="574.89" y="977.37" width="1348.81" height="73.85"/><circle class="cls-8" cx="849.14" cy="911.09" r="34.31"/><circle class="cls-8" cx="983.46" cy="911.09" r="34.31"/><circle class="cls-8" cx="1117.78" cy="911.09" r="34.31"/><circle class="cls-8" cx="1252.1" cy="911.09" r="34.31"/><circle class="cls-8" cx="1386.42" cy="911.09" r="34.31"/><circle class="cls-8" cx="1520.74" cy="911.09" r="34.31"/><circle class="cls-8" cx="1655.06" cy="911.09" r="34.31"/><circle class="cls-8" cx="1789.38" cy="911.09" r="34.31"/><rect class="cls-8" x="1862.06" y="928.53" width="122.69" height="122.69" rx="40"/><circle class="cls-8" cx="1923.7" cy="911.09" r="34.31"/><rect class="cls-8" x="518.85" y="928.53" width="122.69" height="122.69" rx="40"/><circle class="cls-8" cx="580.48" cy="911.09" r="34.31"/></g><path class="cls-6" d="M1953.75,929.33a34.12,34.12,0,0,0,5.26-18.24c0-8.16-4-21.13-15.52-28.71a34.63,34.63,0,0,0-18.79-5.6c-2.4,0-16.65.16-26.44,11.72a37.76,37.76,0,0,0-7.87,22.59,37.18,37.18,0,0,0,1.25,9.16,34.33,34.33,0,0,0,3.95,9,40,40,0,0,0-32.53,39.29v8.84h-11.62v-8.84a40,40,0,0,0-32-39.2,34.31,34.31,0,1,0-58.16-.09,40,40,0,0,0-32.53,39.29v8.84h-11.63v-8.84a40,40,0,0,0-32-39.2,34.31,34.31,0,1,0-58.16-.09,40,40,0,0,0-32.53,39.29v8.84h-11.63v-8.84a40,40,0,0,0-32-39.2,34.31,34.31,0,1,0-58.16-.09,40,40,0,0,0-32.53,39.29v8.84h-11.63v-8.84a40,40,0,0,0-32-39.2,34.31,34.31,0,1,0-58.16-.09,40,40,0,0,0-32.53,39.29v8.84h-11.63v-8.84a40,40,0,0,0-32-39.2,34.31,34.31,0,1,0-58.16-.09,40,40,0,0,0-32.53,39.29v8.84h-11.63v-8.84a40,40,0,0,0-32-39.2,34.31,34.31,0,1,0-58.16-.09,40,40,0,0,0-32.53,39.29v8.84h-11.63v-8.84a40,40,0,0,0-32-39.2,34.31,34.31,0,1,0-58.16-.09,40,40,0,0,0-32.53,39.29v8.84H911.19v-8.84a40,40,0,0,0-32-39.2,34.31,34.31,0,1,0-58.16-.09,40,40,0,0,0-32.53,39.29v8.84H776.87v-8.84a40,40,0,0,0-32-39.2,34.31,34.31,0,1,0-58.16-.09,40,40,0,0,0-32.53,39.29v8.84H642.54v-8.84a40,40,0,0,0-32-39.2,34.26,34.26,0,0,0,4.06-9.23,36.22,36.22,0,0,0-7.33-32.6c-9.6-10.56-22.82-10.76-25.78-10.72a36.42,36.42,0,0,0-24,9.79"/></g><g id="_5" data-name="5"><circle class="cls-9" cx="586.8" cy="944.76" r="37.76"/><rect class="cls-9" x="518.96" y="963.96" width="135.04" height="135.04" rx="40"/><rect class="cls-9" x="666.8" y="963.96" width="135.04" height="135.04" rx="40"/><rect class="cls-9" x="814.64" y="963.96" width="135.04" height="135.04" rx="40"/><rect class="cls-9" x="962.48" y="963.96" width="135.04" height="135.04" rx="40"/><rect class="cls-9" x="1110.32" y="963.96" width="135.04" height="135.04" rx="40"/><rect class="cls-9" x="1258.16" y="963.96" width="135.04" height="135.04" rx="40"/><rect class="cls-9" x="1406" y="963.96" width="135.04" height="135.04" rx="40"/><rect class="cls-9" x="1553.84" y="963.96" width="135.04" height="135.04" rx="40"/><rect class="cls-9" x="1701.68" y="963.96" width="135.04" height="135.04" rx="40"/><rect class="cls-9" x="586.8" y="1017.72" width="1330.56" height="81.28"/><circle class="cls-9" cx="734.64" cy="944.76" r="37.76"/><circle class="cls-9" cx="882.48" cy="944.76" r="37.76"/><circle class="cls-9" cx="1030.32" cy="944.76" r="37.76"/><circle class="cls-9" cx="1178.16" cy="944.76" r="37.76"/><circle class="cls-9" cx="1326" cy="944.76" r="37.76"/><circle class="cls-9" cx="1473.84" cy="944.76" r="37.76"/><circle class="cls-9" cx="1621.68" cy="944.76" r="37.76"/><circle class="cls-9" cx="1769.52" cy="944.76" r="37.76"/><rect class="cls-9" x="1849.52" y="963.96" width="135.04" height="135.04" rx="40"/><circle class="cls-9" cx="1917.36" cy="944.76" r="37.76"/></g><g id="_4" data-name="4"><g id="_4-2" data-name="4"><circle class="cls-4" cx="605.36" cy="986.3" r="41.3"/><rect class="cls-4" x="531.16" y="1007.3" width="147.7" height="147.7" rx="40"/><rect class="cls-4" x="692.86" y="1007.3" width="147.7" height="147.7" rx="40"/><rect class="cls-4" x="854.56" y="1007.3" width="147.7" height="147.7" rx="40"/><rect class="cls-4" x="1016.26" y="1007.3" width="147.7" height="147.7" rx="40"/><rect class="cls-4" x="1177.96" y="1007.3" width="147.7" height="147.7" rx="40"/><rect class="cls-4" x="1339.66" y="1007.3" width="147.7" height="147.7" rx="40"/><rect class="cls-4" x="1501.36" y="1007.3" width="147.7" height="147.7" rx="40"/><rect class="cls-4" x="1663.06" y="1007.3" width="147.7" height="147.7" rx="40"/><rect class="cls-4" x="1824.76" y="1007.3" width="147.7" height="147.7" rx="40"/><rect class="cls-4" x="436.91" y="1066.1" width="1623.75" height="88.9"/><circle class="cls-4" cx="767.06" cy="986.3" r="41.3"/><circle class="cls-4" cx="928.76" cy="986.3" r="41.3"/><circle class="cls-4" cx="1090.46" cy="986.3" r="41.3"/><circle class="cls-4" cx="1252.16" cy="986.3" r="41.3"/><circle class="cls-4" cx="1413.86" cy="986.3" r="41.3"/><circle class="cls-4" cx="1575.56" cy="986.3" r="41.3"/><circle class="cls-4" cx="1737.26" cy="986.3" r="41.3"/><circle class="cls-4" cx="1898.96" cy="986.3" r="41.3"/><rect class="cls-4" x="1986.46" y="1007.3" width="147.7" height="147.7" rx="40"/><circle class="cls-4" cx="2060.66" cy="986.3" r="41.3"/><rect class="cls-4" x="369.44" y="1007.3" width="147.7" height="147.7" rx="40"/><circle class="cls-4" cx="443.64" cy="986.3" r="41.3"/></g><path class="cls-5" d="M1930.76,960c-1.84-2-13.06-14-31.29-14.14-2.94,0-19.26.15-31.08,13.25a40.76,40.76,0,0,0-9.63,19.6"/></g><g id="_3" data-name="3"><g id="_3-2" data-name="3"><circle class="cls-10" cx="427.48" cy="1029.81" r="46.81"/><rect class="cls-10" x="343.39" y="1053.61" width="167.39" height="167.39" rx="40"/><rect class="cls-10" x="526.65" y="1053.61" width="167.39" height="167.39" rx="40"/><rect class="cls-10" x="709.91" y="1053.61" width="167.39" height="167.39" rx="40"/><rect class="cls-10" x="893.17" y="1053.61" width="167.39" height="167.39" rx="40"/><rect class="cls-10" x="1076.43" y="1053.61" width="167.39" height="167.39" rx="40"/><rect class="cls-10" x="1259.69" y="1053.61" width="167.39" height="167.39" rx="40"/><rect class="cls-10" x="1442.95" y="1053.61" width="167.39" height="167.39" rx="40"/><rect class="cls-10" x="1626.21" y="1053.61" width="167.39" height="167.39" rx="40"/><rect class="cls-10" x="1809.47" y="1053.61" width="167.39" height="167.39" rx="40"/><rect class="cls-10" x="427.48" y="1120.25" width="1649.34" height="100.75"/><circle class="cls-10" cx="610.74" cy="1029.81" r="46.81"/><circle class="cls-10" cx="794" cy="1029.81" r="46.81"/><circle class="cls-10" cx="977.26" cy="1029.81" r="46.81"/><circle class="cls-10" cx="1160.52" cy="1029.81" r="46.81"/><circle class="cls-10" cx="1343.78" cy="1029.81" r="46.81"/><circle class="cls-10" cx="1527.04" cy="1029.81" r="46.81"/><circle class="cls-10" cx="1710.3" cy="1029.81" r="46.81"/><circle class="cls-10" cx="1893.56" cy="1029.81" r="46.81"/><rect class="cls-10" x="1992.73" y="1053.61" width="167.39" height="167.39" rx="40"/><circle class="cls-10" cx="2076.82" cy="1029.81" r="46.81"/></g><path class="cls-5" d="M759.77,997.82c2-2.19,14.33-15.1,34.31-15.27,3.23,0,21.13.16,34.09,14.3A43.62,43.62,0,0,1,838.74,1018"/><path class="cls-5" d="M395.39,997.82c2-2.18,14.09-15.09,33.75-15.25,3.17,0,20.78.16,33.53,14.28a44,44,0,0,1,10.4,21.15"/><path class="cls-5" d="M1380.76,999.69c-2.09-2.3-14.88-15.94-35.63-16.11-3.35,0-21.94.17-35.4,15.08a46.37,46.37,0,0,0-11,22.33"/></g><g id="_2" data-name="2"><g id="_2-2" data-name="2"><circle class="cls-11" cx="412.24" cy="1075.27" r="53.64"/><rect class="cls-11" x="315.87" y="1102.54" width="191.82" height="191.82" rx="40"/><rect class="cls-11" x="525.88" y="1102.54" width="191.82" height="191.82" rx="40"/><rect class="cls-11" x="735.89" y="1102.54" width="191.82" height="191.82" rx="40"/><rect class="cls-11" x="945.89" y="1102.54" width="191.82" height="191.82" rx="40"/><rect class="cls-11" x="1155.9" y="1102.54" width="191.82" height="191.82" rx="40"/><rect class="cls-11" x="1365.91" y="1102.54" width="191.82" height="191.82" rx="40"/><rect class="cls-11" x="1575.91" y="1102.54" width="191.82" height="191.82" rx="40"/><rect class="cls-11" x="1785.92" y="1102.54" width="191.82" height="191.82" rx="40"/><rect class="cls-11" x="1995.93" y="1102.54" width="191.82" height="191.82" rx="40"/><rect class="cls-11" x="193.47" y="1178.91" width="2108.83" height="115.46"/><circle class="cls-11" cx="622.25" cy="1075.27" r="53.64"/><circle class="cls-11" cx="832.25" cy="1075.27" r="53.64"/><circle class="cls-11" cx="1042.26" cy="1075.27" r="53.64"/><circle class="cls-11" cx="1252.27" cy="1075.27" r="53.64"/><circle class="cls-11" cx="1462.27" cy="1075.27" r="53.64"/><circle class="cls-11" cx="1672.28" cy="1075.27" r="53.64"/><circle class="cls-11" cx="1882.29" cy="1075.27" r="53.64"/><circle class="cls-11" cx="2092.29" cy="1075.27" r="53.64"/><rect class="cls-11" x="2205.93" y="1102.54" width="191.82" height="191.82" rx="40"/><circle class="cls-11" cx="2302.3" cy="1075.27" r="53.64"/><rect class="cls-11" x="105.85" y="1102.54" width="191.82" height="191.82" rx="40"/><circle class="cls-11" cx="202.21" cy="1075.27" r="53.64"/></g><path class="cls-5" d="M790.76,1041.33c2.36-2.76,16.86-19.12,40.4-19.33,3.8,0,24.88.21,40.15,18.1a57.18,57.18,0,0,1,12.45,26.79"/><path class="cls-5" d="M2129.29,1038.93c-2.26-2.49-16.11-17.25-38.59-17.44-3.62,0-23.75.18-38.34,16.33a50.34,50.34,0,0,0-11.88,24.18"/><path class="cls-5" d="M1293.76,1041.24c-2.45-2.69-17.42-18.65-41.71-18.85-3.92,0-25.68.2-41.45,17.66a54.32,54.32,0,0,0-12.84,26.13"/></g><g id="_1" data-name="1"><g id="_1-2" data-name="1"><circle class="cls-12" cx="147.42" cy="1150.28" r="62.71"/><rect class="cls-12" x="34.76" y="1182.16" width="224.27" height="224.27" rx="40"/><rect class="cls-12" x="280.28" y="1182.16" width="224.27" height="224.27" rx="40"/><rect class="cls-12" x="525.81" y="1182.16" width="224.27" height="224.27" rx="40"/><rect class="cls-12" x="771.33" y="1182.16" width="224.27" height="224.27" rx="40"/><rect class="cls-12" x="1016.86" y="1182.16" width="224.27" height="224.27" rx="40"/><rect class="cls-12" x="1262.38" y="1182.16" width="224.27" height="224.27" rx="40"/><rect class="cls-12" x="1507.91" y="1182.16" width="224.27" height="224.27" rx="40"/><rect class="cls-12" x="1753.44" y="1182.16" width="224.27" height="224.27" rx="40"/><rect class="cls-12" x="1998.96" y="1182.16" width="224.27" height="224.27" rx="40"/><rect class="cls-12" x="147.42" y="1271.45" width="2209.73" height="134.99"/><circle class="cls-12" cx="392.95" cy="1150.28" r="62.71"/><circle class="cls-12" cx="638.47" cy="1150.28" r="62.71"/><circle class="cls-12" cx="884" cy="1150.28" r="62.71"/><circle class="cls-12" cx="1129.52" cy="1150.28" r="62.71"/><circle class="cls-12" cx="1375.05" cy="1150.28" r="62.71"/><circle class="cls-12" cx="1620.58" cy="1150.28" r="62.71"/><circle class="cls-12" cx="1866.1" cy="1150.28" r="62.71"/><circle class="cls-12" cx="2111.63" cy="1150.28" r="62.71"/><rect class="cls-12" x="2244.49" y="1182.16" width="224.27" height="224.27" rx="40"/><circle class="cls-12" cx="2357.15" cy="1150.28" r="62.71"/></g><path class="cls-5" d="M590.39,1108.85c2.76-3,19.66-21,47.08-21.28,4.43,0,29,.22,46.79,19.93a61.39,61.39,0,0,1,14.5,29.5"/></g><g id="_0" data-name="0"><path class="cls-1" d="M2501.76,1188.69a76.09,76.09,0,0,0-122.94,88.63h-31.21a40,40,0,0,0-40,40v68.35h-25.8v-68.35a40,40,0,0,0-40-40H2211.9a76.11,76.11,0,1,0-131.05,0h-31.21a40,40,0,0,0-40,40v68.35h-25.8v-68.35a40,40,0,0,0-40-40h-29.91a76.11,76.11,0,1,0-131,0h-31.21a40,40,0,0,0-40,40v68.35h-25.8v-68.35a40,40,0,0,0-40-40H1616a76.1,76.1,0,1,0-131.06,0h-31.2a40,40,0,0,0-40,40v68.35h-25.8v-68.35a40,40,0,0,0-40-40H1318a76.1,76.1,0,1,0-131.06,0h-31.2a40,40,0,0,0-40,40v68.35h-25.8v-68.35a40,40,0,0,0-40-40H1020a76.1,76.1,0,1,0-131.06,0h-31.2a40,40,0,0,0-40,40v68.35H792v-68.35a40,40,0,0,0-40-40H722.05a76.1,76.1,0,1,0-131.06,0h-31.2a40,40,0,0,0-40,40v68.35H494v-68.35a40,40,0,0,0-40-40H424.08a76.11,76.11,0,1,0-131.06,0h-31.2a40,40,0,0,0-40,40v68.35H196v-68.35a40,40,0,0,0-40-40H126.11a76.1,76.1,0,0,0-124.35-87V1549h2500Z"/><path class="cls-5" d="M1604.76,1187.23c-3.26-3.59-23.22-24.87-55.62-25.14-5.22,0-34.24.26-55.26,23.54a72.45,72.45,0,0,0-17.12,34.85"/><path class="cls-5" d="M2204.76,1188.81c-3.42-3.76-24.31-26-58.22-26.32-5.48,0-35.85.28-57.85,24.65a75.75,75.75,0,0,0-17.93,36.48"/></g></g></g></svg>